<svg xmlns="http://www.w3.org/2000/svg" viewBox="0 0 254.8 83.3"><defs><style>.\32 743f164-3d51-420f-a6bd-50169ccb1c54{fill:#231f20;}.fcc37425-408b-493e-bed1-0f38bb830c62{fill:#c7212f;}.caba728d-2436-4c9d-accd-b929b707c26c{fill:#fff;}</style></defs><title>Asset 2</title><g id="de9d5797-fff8-4014-8379-4abb951dda93" data-name="Layer 2"><g id="ff014c76-e800-4e9c-8fa8-aafe706270bd" data-name="Layer 1"><polygon class="2743f164-3d51-420f-a6bd-50169ccb1c54" points="0 0 0 8.6 0 74.8 0 83.3 254.8 83.3 254.8 74.8 254.8 8.6 254.8 0 0 0"/><rect class="fcc37425-408b-493e-bed1-0f38bb830c62" x="16.3" y="18.188" width="44.533" height="44.983"/><path class="caba728d-2436-4c9d-accd-b929b707c26c" d="M48.841,37.964h4.443V56.63l-5.016-4.811V44.374L45.084,48.1l-2.9-2.632Z"/><path class="caba728d-2436-4c9d-accd-b929b707c26c" d="M44.556,28.807h-20.8l0-4.9H53.281v3.842L29.352,54.587V52.314H47.718L52.71,57.1H21.7V53.6"/><path class="caba728d-2436-4c9d-accd-b929b707c26c" d="M70,23.081a21.962,21.962,0,0,1,3.249-.246,6.774,6.774,0,0,1,4.8,1.476,5.448,5.448,0,0,1,1.668,4.25,6.261,6.261,0,0,1-1.7,4.6,7.291,7.291,0,0,1-5.234,1.7A24.622,24.622,0,0,1,70,34.725Zm1.528,10.467a9.571,9.571,0,0,0,1.546.088c3.266,0,5.04-1.826,5.04-5.023.018-2.792-1.563-4.566-4.794-4.566a8.672,8.672,0,0,0-1.792.158Z"/><path class="caba728d-2436-4c9d-accd-b929b707c26c" d="M89.4,30.44a4.154,4.154,0,0,1-4.232,4.514A4.042,4.042,0,0,1,81.1,30.58a4.15,4.15,0,0,1,4.215-4.513A4.025,4.025,0,0,1,89.4,30.44Zm-6.744.088c0,1.861,1.071,3.267,2.582,3.267,1.475,0,2.582-1.388,2.582-3.3,0-1.441-.72-3.267-2.547-3.267S82.659,28.912,82.659,30.528Z"/><path class="caba728d-2436-4c9d-accd-b929b707c26c" d="M91.841,26.26l1.124,4.32c.245.949.474,1.827.632,2.7h.052c.194-.861.475-1.774.756-2.687l1.387-4.338h1.3l1.317,4.25c.316,1.019.562,1.914.756,2.775h.052a25.414,25.414,0,0,1,.65-2.757l1.212-4.268h1.527l-2.739,8.5H98.462l-1.3-4.057a28.523,28.523,0,0,1-.755-2.792h-.035a25.35,25.35,0,0,1-.773,2.81l-1.37,4.039H92.824l-2.564-8.5Z"/><path class="caba728d-2436-4c9d-accd-b929b707c26c" d="M104.147,28.561c0-.878-.018-1.6-.07-2.3h1.369l.088,1.4h.035a3.127,3.127,0,0,1,2.81-1.6c1.177,0,3,.7,3,3.618V34.76h-1.546v-4.9c0-1.37-.509-2.511-1.967-2.511a2.2,2.2,0,0,0-2.072,1.58,2.235,2.235,0,0,0-.106.721v5.11h-1.545Z"/><path class="caba728d-2436-4c9d-accd-b929b707c26c" d="M113.891,22.291h1.545V34.76h-1.545Z"/><path class="caba728d-2436-4c9d-accd-b929b707c26c" d="M125.726,30.44a4.155,4.155,0,0,1-4.232,4.514,4.042,4.042,0,0,1-4.075-4.374,4.15,4.15,0,0,1,4.215-4.513A4.025,4.025,0,0,1,125.726,30.44Zm-6.744.088c0,1.861,1.071,3.267,2.581,3.267,1.476,0,2.583-1.388,2.583-3.3,0-1.441-.721-3.267-2.547-3.267S118.982,28.912,118.982,30.528Z"/><path class="caba728d-2436-4c9d-accd-b929b707c26c" d="M132.379,34.76l-.123-1.071H132.2a3.165,3.165,0,0,1-2.6,1.265,2.422,2.422,0,0,1-2.6-2.442c0-2.054,1.827-3.178,5.111-3.161v-.176a1.752,1.752,0,0,0-1.932-1.967,4.239,4.239,0,0,0-2.213.632l-.351-1.018a5.27,5.27,0,0,1,2.792-.755c2.6,0,3.233,1.773,3.233,3.477v3.179a12.111,12.111,0,0,0,.139,2.037Zm-.229-4.338c-1.686-.035-3.6.264-3.6,1.915a1.367,1.367,0,0,0,1.458,1.475,2.117,2.117,0,0,0,2.055-1.423,1.628,1.628,0,0,0,.087-.491Z"/><path class="caba728d-2436-4c9d-accd-b929b707c26c" d="M143.475,22.291V32.565c0,.755.017,1.616.07,2.2h-1.388l-.069-1.475h-.035a3.146,3.146,0,0,1-2.9,1.669c-2.054,0-3.635-1.739-3.635-4.321-.018-2.828,1.739-4.566,3.811-4.566a2.844,2.844,0,0,1,2.565,1.3h.035V22.291ZM141.93,29.72a2.709,2.709,0,0,0-.071-.65,2.273,2.273,0,0,0-2.23-1.792c-1.6,0-2.547,1.406-2.547,3.285,0,1.721.843,3.144,2.512,3.144a2.323,2.323,0,0,0,2.265-1.845,2.661,2.661,0,0,0,.071-.667Z"/><path class="caba728d-2436-4c9d-accd-b929b707c26c" d="M80.449,58.159a12.534,12.534,0,0,1-4.141.741,6.332,6.332,0,0,1-6.921-6.8c.02-4.022,2.78-6.962,7.3-6.962a8.336,8.336,0,0,1,3.361.62l-.42,1.421a6.992,6.992,0,0,0-2.981-.58,5.043,5.043,0,0,0-5.421,5.421c0,3.421,2.061,5.441,5.2,5.441a5.68,5.68,0,0,0,2.321-.36V53.078H76.008v-1.4h4.441Z"/><path class="caba728d-2436-4c9d-accd-b929b707c26c" d="M92.529,58.319a8.623,8.623,0,0,1-3.561.641c-3.8,0-6.661-2.4-6.661-6.821a6.709,6.709,0,0,1,7.041-7.082,7.231,7.231,0,0,1,3.2.6l-.42,1.42a6.344,6.344,0,0,0-2.721-.559c-3.16,0-5.261,2.019-5.261,5.56,0,3.3,1.9,5.421,5.181,5.421a6.979,6.979,0,0,0,2.84-.559Z"/><path class="caba728d-2436-4c9d-accd-b929b707c26c" d="M98.706,56.64a6.177,6.177,0,0,0,3.121.88c1.78,0,2.82-.941,2.82-2.3,0-1.26-.72-1.981-2.54-2.681-2.2-.78-3.561-1.92-3.561-3.82,0-2.1,1.741-3.661,4.361-3.661a6.129,6.129,0,0,1,2.981.66l-.48,1.421a5.375,5.375,0,0,0-2.561-.641c-1.841,0-2.541,1.1-2.541,2.021,0,1.26.82,1.881,2.681,2.6,2.281.88,3.441,1.981,3.441,3.961,0,2.08-1.541,3.881-4.721,3.881a6.967,6.967,0,0,1-3.441-.86Z"/><path class="caba728d-2436-4c9d-accd-b929b707c26c" d="M120.168,52.839c-.1-1.881-.22-4.142-.2-5.821h-.06c-.46,1.58-1.02,3.26-1.7,5.121l-2.38,6.541h-1.321l-2.18-6.421c-.64-1.9-1.181-3.642-1.56-5.241h-.04c-.04,1.679-.141,3.94-.261,5.961l-.36,5.781h-1.66l.94-13.483h2.22l2.3,6.521c.56,1.661,1.02,3.141,1.361,4.541h.059c.34-1.36.82-2.84,1.421-4.541l2.4-6.521h2.221l.84,13.483h-1.7Z"/><path class="caba728d-2436-4c9d-accd-b929b707c26c" d="M135.148,58.159a12.527,12.527,0,0,1-4.14.741,6.333,6.333,0,0,1-6.922-6.8c.02-4.022,2.781-6.962,7.3-6.962a8.34,8.34,0,0,1,3.361.62l-.421,1.421a6.987,6.987,0,0,0-2.98-.58,5.043,5.043,0,0,0-5.422,5.421c0,3.421,2.061,5.441,5.2,5.441a5.671,5.671,0,0,0,2.32-.36V53.078h-2.74v-1.4h4.44Z"/><path class="caba728d-2436-4c9d-accd-b929b707c26c" d="M140.007,58.76l-3.421-13.483h1.841l1.6,6.822c.4,1.679.76,3.36,1,4.661h.04c.22-1.341.64-2.942,1.1-4.682l1.8-6.8h1.82l1.641,6.841c.38,1.6.74,3.2.94,4.621h.04c.279-1.48.66-2.98,1.08-4.661l1.781-6.8h1.78L149.229,58.76h-1.821l-1.7-7.022a40.6,40.6,0,0,1-.88-4.4h-.04a42.066,42.066,0,0,1-1.04,4.4l-1.921,7.022Z"/><path class="caba728d-2436-4c9d-accd-b929b707c26c" d="M162.4,58.54a4.318,4.318,0,0,1-1.78.319,3.148,3.148,0,0,1-3.328-3.408,3.353,3.353,0,0,1,3.519-3.538,3.613,3.613,0,0,1,1.6.3l-.209.71a3.165,3.165,0,0,0-1.359-.279,2.5,2.5,0,0,0-2.629,2.778A2.449,2.449,0,0,0,160.8,58.13a3.482,3.482,0,0,0,1.419-.279Z"/><path class="caba728d-2436-4c9d-accd-b929b707c26c" d="M167.725,56.3a2.365,2.365,0,0,1-2.41,2.569A2.3,2.3,0,0,1,163,56.381a2.362,2.362,0,0,1,2.4-2.568A2.291,2.291,0,0,1,167.725,56.3Zm-3.838.051c0,1.058.609,1.858,1.468,1.858.84,0,1.47-.789,1.47-1.879,0-.819-.41-1.859-1.449-1.859S163.887,55.432,163.887,56.352Z"/><path class="caba728d-2436-4c9d-accd-b929b707c26c" d="M168.837,55.232c0-.5-.01-.91-.04-1.309h.769l.04.779h.031a1.664,1.664,0,0,1,1.518-.889,1.43,1.43,0,0,1,1.37.969h.02a1.994,1.994,0,0,1,.54-.63,1.654,1.654,0,0,1,1.069-.339c.64,0,1.589.42,1.589,2.1V58.76h-.859V56.022c0-.93-.34-1.49-1.05-1.49a1.138,1.138,0,0,0-1.039.8,1.439,1.439,0,0,0-.07.44V58.76h-.86v-2.9c0-.769-.34-1.329-1.01-1.329a1.2,1.2,0,0,0-1.088.879,1.223,1.223,0,0,0-.071.431V58.76h-.859Z"/><path class="caba728d-2436-4c9d-accd-b929b707c26c" d="M177.177,55.232c0-.5-.01-.91-.04-1.309h.769l.04.779h.031a1.664,1.664,0,0,1,1.518-.889,1.43,1.43,0,0,1,1.37.969h.02a1.994,1.994,0,0,1,.54-.63,1.654,1.654,0,0,1,1.069-.339c.64,0,1.589.42,1.589,2.1V58.76h-.859V56.022c0-.93-.34-1.49-1.05-1.49a1.138,1.138,0,0,0-1.039.8,1.438,1.438,0,0,0-.071.44V58.76h-.859v-2.9c0-.769-.34-1.329-1.01-1.329a1.2,1.2,0,0,0-1.089.879,1.245,1.245,0,0,0-.07.431V58.76h-.859Z"/><path class="caba728d-2436-4c9d-accd-b929b707c26c" d="M189.564,57.441c0,.5.01.939.04,1.319h-.779l-.05-.79h-.02a1.819,1.819,0,0,1-1.6.9c-.76,0-1.67-.42-1.67-2.119V53.923h.88V56.6c0,.92.28,1.539,1.079,1.539a1.271,1.271,0,0,0,1.16-.8,1.287,1.287,0,0,0,.08-.45V53.923h.879Z"/><path class="caba728d-2436-4c9d-accd-b929b707c26c" d="M191.027,55.232c0-.5-.009-.91-.04-1.309h.78l.05.8h.02a1.781,1.781,0,0,1,1.6-.909c.668,0,1.709.4,1.709,2.058V58.76h-.88V55.972c0-.78-.29-1.43-1.12-1.43a1.29,1.29,0,0,0-1.239,1.31V58.76h-.88Z"/><path class="caba728d-2436-4c9d-accd-b929b707c26c" d="M197.557,52.564a.545.545,0,0,1-1.089,0,.535.535,0,0,1,.549-.55A.522.522,0,0,1,197.557,52.564Zm-.98,6.2V53.923h.88V58.76Z"/><path class="caba728d-2436-4c9d-accd-b929b707c26c" d="M199.977,52.533v1.39h1.258v.669h-1.258V57.2c0,.6.169.94.659.94a1.958,1.958,0,0,0,.51-.06l.04.66a2.158,2.158,0,0,1-.78.119,1.217,1.217,0,0,1-.949-.369,1.789,1.789,0,0,1-.34-1.259V54.592h-.75v-.669h.75v-1.16Z"/><path class="caba728d-2436-4c9d-accd-b929b707c26c" d="M202.637,53.923l1.058,2.858c.111.32.231.7.311.99h.019c.09-.29.191-.661.31-1.01l.96-2.838h.93l-1.32,3.447a7.371,7.371,0,0,1-1.659,3.029,2.393,2.393,0,0,1-1.079.57l-.221-.74a2.3,2.3,0,0,0,.77-.43,2.66,2.66,0,0,0,.74-.98.611.611,0,0,0,.069-.21.76.76,0,0,0-.059-.229l-1.789-4.457Z"/><path class="caba728d-2436-4c9d-accd-b929b707c26c" d="M212.665,55.6h-2.619V58.03h2.919v.73h-3.788V52.024h3.637v.729h-2.768v2.129h2.619Z"/><path class="caba728d-2436-4c9d-accd-b929b707c26c" d="M218.2,51.664v5.847c0,.43.01.919.04,1.249h-.79l-.039-.84h-.02a1.79,1.79,0,0,1-1.65.95,2.205,2.205,0,0,1-2.068-2.459,2.313,2.313,0,0,1,2.169-2.6,1.617,1.617,0,0,1,1.459.739h.019V51.664Zm-.88,4.228a1.6,1.6,0,0,0-.039-.37,1.3,1.3,0,0,0-1.269-1.02c-.911,0-1.45.8-1.45,1.869,0,.98.48,1.789,1.429,1.789a1.322,1.322,0,0,0,1.29-1.05,1.565,1.565,0,0,0,.039-.379Z"/><path class="caba728d-2436-4c9d-accd-b929b707c26c" d="M220.646,52.564a.545.545,0,0,1-1.089,0,.535.535,0,0,1,.548-.55A.522.522,0,0,1,220.646,52.564Zm-.98,6.2V53.923h.88V58.76Z"/><path class="caba728d-2436-4c9d-accd-b929b707c26c" d="M223.065,52.533v1.39h1.259v.669h-1.259V57.2c0,.6.17.94.66.94a1.943,1.943,0,0,0,.509-.06l.04.66a2.152,2.152,0,0,1-.779.119,1.217,1.217,0,0,1-.949-.369,1.789,1.789,0,0,1-.34-1.259V54.592h-.75v-.669h.75v-1.16Z"/><path class="caba728d-2436-4c9d-accd-b929b707c26c" d="M226.3,52.564a.545.545,0,0,1-1.089,0,.535.535,0,0,1,.549-.55A.522.522,0,0,1,226.3,52.564Zm-.98,6.2V53.923h.88V58.76Z"/><path class="caba728d-2436-4c9d-accd-b929b707c26c" d="M232.034,56.3a2.364,2.364,0,0,1-2.409,2.569,2.3,2.3,0,0,1-2.318-2.489,2.361,2.361,0,0,1,2.4-2.568A2.29,2.29,0,0,1,232.034,56.3Zm-3.838.051c0,1.058.61,1.858,1.469,1.858.84,0,1.47-.789,1.47-1.879,0-.819-.41-1.859-1.449-1.859S228.2,55.432,228.2,56.352Z"/><path class="caba728d-2436-4c9d-accd-b929b707c26c" d="M233.146,55.232c0-.5-.009-.91-.04-1.309h.78l.051.8h.019a1.781,1.781,0,0,1,1.6-.909c.669,0,1.709.4,1.709,2.058V58.76h-.88V55.972c0-.78-.29-1.43-1.119-1.43a1.29,1.29,0,0,0-1.24,1.31V58.76h-.88Z"/></g></g></svg>