<svg xmlns="http://www.w3.org/2000/svg" viewBox="0 0 254.795 83.346"><defs><style>.bede2050-106e-43f8-9397-6a3aa6fb266c{fill:#231f20;}.\32 4637043-a12f-4f5b-9ecc-a0b9f0c61496{fill:#fff;}</style></defs><title>Asset 1</title><g id="4035d84e-cba7-4167-8ce6-d7182232216d" data-name="Layer 2"><g id="652185e4-5f0d-4dc3-8a39-d934bce94109" data-name="Layer 1"><polygon class="bede2050-106e-43f8-9397-6a3aa6fb266c" points="0 0 0 8.583 0 74.763 0 83.346 254.795 83.346 254.795 74.763 254.795 8.583 254.795 0 0 0"/><path class="24637043-a12f-4f5b-9ecc-a0b9f0c61496" d="M107.075,25.448a7.262,7.262,0,0,1-.913,3.678,6.147,6.147,0,0,1-2.6,2.456,8.359,8.359,0,0,1-3.853.86H96.1V18.8h3.767Q107.076,18.8,107.075,25.448Zm-1.674.039q0-5.244-5.566-5.244H97.7V31H99.73a5.758,5.758,0,0,0,4.187-1.442A5.409,5.409,0,0,0,105.4,25.487Zm13.007,2.046a5.256,5.256,0,0,1-1.318,3.734,4.6,4.6,0,0,1-3.534,1.414,4.5,4.5,0,0,1-3.45-1.377,5.081,5.081,0,0,1-1.29-3.62,5.34,5.34,0,0,1,1.323-3.819,4.762,4.762,0,0,1,3.645-1.4,4.346,4.346,0,0,1,3.4,1.354A5.335,5.335,0,0,1,118.408,27.533Zm-1.6.057A4.318,4.318,0,0,0,116,24.772a2.857,2.857,0,0,0-2.327-.98,2.992,2.992,0,0,0-2.379,1,4.173,4.173,0,0,0-.876,2.831,3.961,3.961,0,0,0,.881,2.736,3.022,3.022,0,0,0,2.374.985,2.869,2.869,0,0,0,2.331-.97A4.247,4.247,0,0,0,116.809,27.59ZM133.1,22.7l-2.921,9.743h-1.618l-2.006-6.975a4.808,4.808,0,0,1-.153-.895h-.037a4.348,4.348,0,0,1-.2.875l-2.179,6.994h-1.56L119.483,22.7h1.636l2.008,7.326a5.229,5.229,0,0,1,.133.876h.077a3.9,3.9,0,0,1,.181-.894l2.235-7.308h1.428l2.026,7.345a5.041,5.041,0,0,1,.133.876h.076a3.366,3.366,0,0,1,.153-.876l1.989-7.345h1.54Zm9.9,9.743h-1.56V26.885q0-3.093-2.264-3.093a2.477,2.477,0,0,0-1.927.871,3.214,3.214,0,0,0-.775,2.221v5.557h-1.561V22.7h1.561v1.616h.038a3.5,3.5,0,0,1,3.2-1.854,2.962,2.962,0,0,1,2.45,1.046A4.625,4.625,0,0,1,143,26.474v5.968Zm4.5,0h-1.56V18.018h1.56Zm12.007-4.909a5.252,5.252,0,0,1-1.319,3.734,4.6,4.6,0,0,1-3.534,1.414A4.5,4.5,0,0,1,151.21,31.3a5.081,5.081,0,0,1-1.29-3.62,5.34,5.34,0,0,1,1.323-3.819,4.762,4.762,0,0,1,3.645-1.4,4.346,4.346,0,0,1,3.4,1.354A5.34,5.34,0,0,1,159.512,27.533Zm-1.6.057a4.312,4.312,0,0,0-.813-2.818,2.855,2.855,0,0,0-2.327-.98,2.993,2.993,0,0,0-2.378,1,4.173,4.173,0,0,0-.876,2.831,3.965,3.965,0,0,0,.88,2.736,3.023,3.023,0,0,0,2.374.985,2.868,2.868,0,0,0,2.331-.97A4.242,4.242,0,0,0,157.913,27.59Zm10.914,4.852h-1.56V30.919h-.037a3.266,3.266,0,0,1-3,1.762,3.228,3.228,0,0,1-2.254-.767,2.641,2.641,0,0,1-.847-2.061q0-2.72,3.215-3.178l2.921-.408q0-2.472-2.007-2.474a4.814,4.814,0,0,0-3.178,1.191v-1.6a4.705,4.705,0,0,1,1.465-.624,6.741,6.741,0,0,1,1.846-.3q3.435,0,3.435,3.644v6.338Zm-1.56-4.928-2.359.332a3.518,3.518,0,0,0-1.694.575,1.613,1.613,0,0,0-.485,1.309,1.461,1.461,0,0,0,.523,1.174,2.007,2.007,0,0,0,1.341.443,2.5,2.5,0,0,0,1.918-.819,2.9,2.9,0,0,0,.756-2.045Zm12.74,4.928h-1.56V30.787h-.038a3.913,3.913,0,0,1-6.289.566,5.4,5.4,0,0,1-1.095-3.544,5.9,5.9,0,0,1,1.213-3.882,4,4,0,0,1,3.25-1.464,3.135,3.135,0,0,1,2.921,1.578h.038V18.018h1.56V32.442Zm-1.56-4.405V26.6a2.712,2.712,0,0,0-.8-2.006,2.669,2.669,0,0,0-1.955-.8,2.7,2.7,0,0,0-2.235,1.043,4.525,4.525,0,0,0-.829,2.887,4.127,4.127,0,0,0,.781,2.651,2.552,2.552,0,0,0,2.1.975,2.7,2.7,0,0,0,2.113-.933A3.459,3.459,0,0,0,178.447,28.037Zm14.073-8.649a2.072,2.072,0,0,0-1.037-.257q-1.637,0-1.636,2.065v1.5h2.283v1.323h-2.283v8.42h-1.56v-8.42h-1.656V22.7h1.656V21.118a3.312,3.312,0,0,1,.876-2.4,2.942,2.942,0,0,1,2.226-.915,3.07,3.07,0,0,1,1.133.172v1.409Zm18.8,4.89a2.091,2.091,0,0,0-2.874.661,4.509,4.509,0,0,0-.647,2.535v4.967h-1.56V22.7h1.56v2.009h.038a3.445,3.445,0,0,1,1-1.6,2.3,2.3,0,0,1,1.552-.585,2.6,2.6,0,0,1,.933.132Zm-7.79,3.255a5.26,5.26,0,0,1-1.317,3.734,4.606,4.606,0,0,1-3.534,1.414,4.5,4.5,0,0,1-3.449-1.377,5.076,5.076,0,0,1-1.29-3.62,5.34,5.34,0,0,1,1.322-3.819,4.764,4.764,0,0,1,3.645-1.4,4.35,4.35,0,0,1,3.4,1.354A5.344,5.344,0,0,1,203.532,27.533Zm-1.6.057a4.307,4.307,0,0,0-.814-2.818,2.851,2.851,0,0,0-2.325-.98,3,3,0,0,0-2.38,1,4.183,4.183,0,0,0-.875,2.831,3.961,3.961,0,0,0,.881,2.736,3.023,3.023,0,0,0,2.374.985,2.869,2.869,0,0,0,2.331-.97A4.253,4.253,0,0,0,201.933,27.59Z"/><path id="dc2ecb9b-6559-469c-bb1d-c4728f164526" data-name="path3" class="24637043-a12f-4f5b-9ecc-a0b9f0c61496" d="M52.115,27.313V36.93l3.361,2.117a.883.883,0,0,0,.369,0L70.31,29.3a2.062,2.062,0,0,0-1.685-1.982Z"/><path id="fd898b7a-0b83-4be4-97f6-b21f3d5ef837" data-name="path5" class="24637043-a12f-4f5b-9ecc-a0b9f0c61496" d="M52.115,40.519l3.068,2.107a.916.916,0,0,0,.952,0c-.519.317,14.177-9.444,14.177-9.444V50.857a2.474,2.474,0,0,1-2.617,2.732H52.114V40.519Z"/><g id="30672031-e8e2-4a51-8b50-b79e0600f789" data-name="g23"><path id="f1d53ac8-a153-430a-9475-fe4267ad40fa" data-name="path25" class="24637043-a12f-4f5b-9ecc-a0b9f0c61496" d="M36.235,36.084a2.826,2.826,0,0,0-2.493,1.472,7.255,7.255,0,0,0-.923,3.9,7.111,7.111,0,0,0,.923,3.889,2.8,2.8,0,0,0,4.866.039,7.051,7.051,0,0,0,.905-3.86,7.672,7.672,0,0,0-.877-4A2.7,2.7,0,0,0,36.235,36.084Z"/><path id="b40a599c-b086-4f97-ba70-5915c10635e7" data-name="path27" class="24637043-a12f-4f5b-9ecc-a0b9f0c61496" d="M21.684,22.43V60.054l28.622,6V16.89ZM40.837,47.6a5.677,5.677,0,0,1-4.733,2.39,5.6,5.6,0,0,1-4.635-2.314,9.587,9.587,0,0,1-1.791-6.032A10.305,10.305,0,0,1,31.5,35.3a5.735,5.735,0,0,1,4.82-2.424A5.472,5.472,0,0,1,40.9,35.193a9.9,9.9,0,0,1,1.75,6.117A10.123,10.123,0,0,1,40.837,47.6Z"/></g><g id="4c47fc2f-386f-4840-b28b-3ac466908a03" data-name="g7"><path id="7e5f435c-74cf-4d83-b157-332e25a714cc" data-name="path9" class="24637043-a12f-4f5b-9ecc-a0b9f0c61496" d="M107.065,64.563a10.561,10.561,0,0,1-8.2-3.373,12.5,12.5,0,0,1-3.079-8.774q0-5.8,3.138-9.263a10.961,10.961,0,0,1,8.54-3.456,10.327,10.327,0,0,1,8.029,3.356,12.555,12.555,0,0,1,3.045,8.774q0,5.889-3.121,9.312A10.758,10.758,0,0,1,107.065,64.563Zm.2-22.315a7.757,7.757,0,0,0-6.158,2.735,10.592,10.592,0,0,0-2.366,7.182,10.665,10.665,0,0,0,2.307,7.158,7.524,7.524,0,0,0,6.015,2.708,7.9,7.9,0,0,0,6.242-2.583q2.28-2.582,2.281-7.231,0-4.766-2.215-7.366A7.581,7.581,0,0,0,107.266,42.248Z"/><path id="c7beb5d4-c1e7-465f-a822-d4c3ab77a156" data-name="path11" class="24637043-a12f-4f5b-9ecc-a0b9f0c61496" d="M135.937,64.16h-2.751V61.442h-.068a5.651,5.651,0,0,1-5.3,3.121q-6.141,0-6.141-7.316V46.979h2.735v9.832q0,5.434,4.162,5.436a4.2,4.2,0,0,0,3.313-1.484,5.679,5.679,0,0,0,1.3-3.885v-9.9h2.751V64.16Z"/><path id="82855b68-e547-4c13-9328-060f6dc6e9f1" data-name="path13" class="24637043-a12f-4f5b-9ecc-a0b9f0c61496" d="M148.6,63.992a5.284,5.284,0,0,1-2.568.538q-4.513,0-4.513-5.034V49.328h-2.953V46.979h2.953V42.784l2.751-.89v5.085H148.6v2.349h-4.329v9.68a4,4,0,0,0,.588,2.467,2.338,2.338,0,0,0,1.946.739,2.883,2.883,0,0,0,1.8-.571v2.349Z"/></g><g id="435662a4-d180-46b8-9b83-62882dd8ed67" data-name="g29"><path id="a7920d92-a3b4-4a44-a4d9-68e047e810c0" data-name="path31" class="24637043-a12f-4f5b-9ecc-a0b9f0c61496" d="M154.976,64.16h-2.752V38.723h2.752V64.16Z"/><path id="3272b32a-280a-45fb-a53f-e82f2b7ec573" data-name="path33" class="24637043-a12f-4f5b-9ecc-a0b9f0c61496" d="M166.868,64.563a7.969,7.969,0,0,1-6.082-2.408,8.916,8.916,0,0,1-2.274-6.384,9.291,9.291,0,0,1,2.366-6.762,8.5,8.5,0,0,1,6.391-2.433,7.709,7.709,0,0,1,6,2.366,9.387,9.387,0,0,1,2.156,6.561,9.233,9.233,0,0,1-2.324,6.586A8.145,8.145,0,0,1,166.868,64.563Zm.2-15.672a5.228,5.228,0,0,0-4.193,1.8,7.4,7.4,0,0,0-1.544,4.975,7.007,7.007,0,0,0,1.56,4.816,5.3,5.3,0,0,0,4.177,1.762,5.034,5.034,0,0,0,4.1-1.728,7.5,7.5,0,0,0,1.434-4.916,7.631,7.631,0,0,0-1.434-4.967,5.008,5.008,0,0,0-4.1-1.746Z"/><path id="994056ac-7ef9-4da6-96b0-4b538ee7e4ca" data-name="path35" class="24637043-a12f-4f5b-9ecc-a0b9f0c61496" d="M186.145,64.563a7.967,7.967,0,0,1-6.082-2.408,8.917,8.917,0,0,1-2.275-6.384,9.291,9.291,0,0,1,2.366-6.762,8.5,8.5,0,0,1,6.393-2.433,7.708,7.708,0,0,1,6,2.366A9.382,9.382,0,0,1,194.7,55.5a9.229,9.229,0,0,1-2.324,6.586A8.146,8.146,0,0,1,186.145,64.563Zm.2-15.672a5.232,5.232,0,0,0-4.195,1.8,7.408,7.408,0,0,0-1.544,4.975,7.007,7.007,0,0,0,1.56,4.816,5.3,5.3,0,0,0,4.178,1.762,5.031,5.031,0,0,0,4.1-1.728,7.5,7.5,0,0,0,1.435-4.916,7.631,7.631,0,0,0-1.435-4.967A5,5,0,0,0,186.346,48.891Z"/><path id="f0067156-83ee-48d3-806e-dfd73f3fbd52" data-name="path37" class="24637043-a12f-4f5b-9ecc-a0b9f0c61496" d="M212.5,64.16h-3.86L201.056,55.9h-.068V64.16h-2.751V38.723h2.751V54.848h.068l7.215-7.869h3.607l-7.97,8.289Z"/></g></g></g></svg>